<svg width="24" height="24" viewBox="0 0 24 24" fill="none" xmlns="http://www.w3.org/2000/svg">
<path d="M19.665 16.811C19.3881 17.4565 19.046 18.072 18.644 18.648C18.107 19.415 17.666 19.945 17.328 20.24C16.803 20.722 16.239 20.97 15.636 20.984C15.204 20.984 14.682 20.861 14.074 20.611C13.464 20.362 12.904 20.24 12.391 20.24C11.854 20.24 11.278 20.362 10.661 20.611C10.045 20.861 9.54699 20.992 9.16599 21.004C8.58899 21.029 8.01199 20.775 7.43699 20.24C7.06999 19.92 6.61099 19.37 6.05999 18.592C5.46999 17.763 4.98499 16.798 4.60499 15.701C4.19799 14.514 3.99399 13.366 3.99399 12.254C3.99399 10.981 4.26899 9.88202 4.81999 8.96202C5.23674 8.23949 5.83254 7.63646 6.54999 7.21102C7.25746 6.78669 8.06507 6.55821 8.88999 6.54902C9.34999 6.54902 9.95299 6.69102 10.7 6.97102C11.447 7.25102 11.927 7.39302 12.136 7.39302C12.294 7.39302 12.825 7.22602 13.729 6.89502C14.582 6.58802 15.302 6.46102 15.892 6.51102C17.492 6.64002 18.693 7.27002 19.492 8.40602C18.062 9.27302 17.355 10.486 17.369 12.043C17.381 13.256 17.822 14.265 18.686 15.066C19.068 15.4316 19.5136 15.7241 20.001 15.929C19.895 16.236 19.783 16.529 19.665 16.811V16.811ZM15.998 2.38002C15.998 3.33002 15.65 4.21802 14.959 5.03902C14.123 6.01502 13.113 6.58002 12.018 6.49102C12.0037 6.37156 11.9967 6.25134 11.997 6.13102C11.997 5.21802 12.393 4.24202 13.1 3.44302C13.452 3.03902 13.9 2.70202 14.443 2.43402C14.985 2.17002 15.497 2.02402 15.979 1.99902C15.992 2.12702 15.998 2.25402 15.998 2.38002V2.38002Z" fill="white"/>
</svg>
