<svg width="24" height="24" viewBox="0 0 24 24" fill="none" xmlns="http://www.w3.org/2000/svg">
<path d="M10.742 2.04C9.338 2.223 7.682 2.848 6.461 3.666C5.451 4.33 4.064 5.686 4.152 5.917C4.345 6.418 7.432 11.575 7.482 11.479C7.52 11.412 7.577 11.2 7.605 10.989C7.855 9.60401 9.03 8.285 10.502 7.736C11.07 7.515 11.185 7.515 15.997 7.466L20.914 7.419L20.519 6.773C19.134 4.513 16.997 2.954 14.322 2.261C13.591 2.068 11.512 1.943 10.742 2.041V2.04Z" fill="white"/>
<path d="M3.20002 7.21695C2.74702 8.01595 2.21702 9.63195 2.09302 10.575C1.50502 14.848 3.66102 18.975 7.47202 20.89C8.36602 21.342 9.64602 21.775 10.204 21.823L10.56 21.852L12.234 19.014C13.149 17.455 13.889 16.165 13.87 16.146C13.85 16.127 13.639 16.185 13.389 16.271C11.82 16.801 10.002 16.357 8.81902 15.155C8.39502 14.731 7.81702 13.798 5.97902 10.613C4.71002 8.40995 3.64202 6.60095 3.60302 6.60095C3.57502 6.60095 3.39202 6.87995 3.20002 7.21695Z" fill="white"/>
<path d="M15.15 8.80396C16.372 10.046 16.805 11.807 16.266 13.394C16.18 13.654 15.054 15.665 13.765 17.879C12.475 20.082 11.416 21.91 11.416 21.939C11.416 22.054 12.744 21.996 13.591 21.852C17.911 21.112 21.164 17.85 21.856 13.576C22.116 12.018 22.02 10.651 21.549 9.07296L21.299 8.23596H14.592L15.149 8.80396H15.15Z" fill="white"/>
<path d="M10.608 8.56297C9.59797 8.98697 8.90497 9.69997 8.52997 10.71C8.35697 11.163 8.32798 11.423 8.35698 12.134C8.38698 12.884 8.42498 13.097 8.70398 13.645C9.06998 14.395 9.66597 14.974 10.455 15.348C10.917 15.569 11.109 15.598 11.995 15.598C12.89 15.598 13.072 15.569 13.554 15.338C14.266 15.012 15.016 14.261 15.344 13.548C15.574 13.068 15.603 12.885 15.603 11.99C15.603 11.104 15.574 10.912 15.353 10.45C14.978 9.66197 14.401 9.06397 13.65 8.69997C13.082 8.41997 12.908 8.38197 12.09 8.35197C11.302 8.33297 11.1 8.36197 10.61 8.56397L10.608 8.56297Z" fill="white"/>
</svg>
