<svg width="154" height="38" viewBox="0 0 154 38" fill="none" xmlns="http://www.w3.org/2000/svg">
<path d="M21.75 16.0004C21.75 14.8131 23.3292 14.4984 23.7481 15.6094C24.7616 18.2966 25.5 20.7006 25.5 22.0003C25.5 26.1425 22.1421 29.5003 18 29.5003C13.8579 29.5003 10.5 26.1425 10.5 22.0003C10.5 20.604 11.3523 17.933 12.4823 15.0055C13.9461 11.2132 14.678 9.31704 15.5815 9.21491C15.8706 9.18223 16.186 9.24098 16.4439 9.37557C17.25 9.79619 17.25 11.8643 17.25 16.0004C17.25 17.2431 18.2574 18.2504 19.5 18.2504C20.7426 18.2504 21.75 17.2431 21.75 16.0004Z" stroke="#00FF85" stroke-width="2"/>
<path d="M16.5 29.5L16.1058 28.5145C15.4224 26.806 15.7105 24.8619 16.86 23.425V23.425C17.4445 22.6944 18.5555 22.6944 19.14 23.425V23.425C20.2895 24.8619 20.5776 26.806 19.8942 28.5145L19.5 29.5" stroke="#00FF85" stroke-width="2"/>
<path d="M43.272 26.27C48.618 26.27 49.662 24.722 49.662 22.94V22.832C49.662 20.888 48.726 19.88 44.262 19.79L42.534 19.754C40.86 19.7 40.5 19.412 40.5 18.98V18.944C40.5 18.458 40.878 18.224 42.804 18.224H42.822C44.982 18.224 45.162 18.854 45.216 19.214H49.302V19.088C49.302 17.576 48.132 16.046 43.236 16.046H42.516C37.188 16.046 36.396 17.576 36.396 19.07V19.178C36.396 20.6 37.404 22.112 41.616 22.202L43.344 22.238C45.234 22.292 45.468 22.58 45.468 23.084V23.12C45.468 23.588 45.198 24.038 42.966 24.038H42.93C40.59 24.038 40.446 23.084 40.446 22.724H36.306V22.832C36.306 24.074 36.882 26.27 42.534 26.27H43.272ZM57.7737 26V23.336H56.6757C55.9737 23.336 55.8657 23.012 55.8657 22.49V18.98H57.7737V16.316H55.8657V13.49H51.9057V16.316H50.0157V18.98H51.9057V23.246C51.9057 24.92 52.5537 26 54.2997 26H57.7737ZM72.5271 16.316H68.5131V20.888C68.5131 22.472 67.3791 23.516 65.6331 23.516C63.9231 23.516 63.1491 22.544 63.1491 21.104V16.316H59.0991V22.346C59.0991 24.164 60.3771 26.216 63.7071 26.216H63.8511C66.6591 26.216 68.0631 24.776 68.5491 24.326V26H72.5271V16.316ZM79.4371 26V18.98H82.8391V26H86.7991V18.98H89.1211V16.316H86.7991V15.776C86.7991 15.218 86.9251 14.984 87.5551 14.984H89.1211V12.608H86.2051C83.4151 12.608 82.8391 13.958 82.8391 15.164V16.316H79.4371V15.776C79.4371 15.218 79.5631 14.984 80.1931 14.984H81.7411V12.608H78.8431C76.0531 12.608 75.4771 13.958 75.4771 15.164V16.316H73.6231V18.98H75.4771V26H79.4371ZM92.7883 22.85H88.4503V26H92.7883V22.85Z" fill="white"/>
<path d="M98.1442 26H102.968L107.702 16.316H103.67L100.646 22.94L97.5322 16.316H93.2122L98.1442 26ZM112.368 21.086C112.368 19.844 113.448 18.584 115.95 18.584H116.04C118.632 18.584 119.352 19.844 119.352 21.086V21.158C119.352 22.328 118.632 23.678 116.04 23.678H115.95C113.502 23.678 112.368 22.364 112.368 21.158V21.086ZM108.354 16.316V29.384H112.368V24.632C112.692 24.992 114.312 26.234 117.192 26.234H117.48C121.944 26.234 123.456 23.822 123.456 21.284V20.942C123.456 18.278 121.998 16.082 117.606 16.082H117.282C114.348 16.082 112.8 17.324 112.368 17.702V16.316H108.354ZM124.701 26H128.715V21.428C128.715 19.844 129.885 18.8 131.685 18.8C133.467 18.8 134.277 19.718 134.277 21.212V26H138.327V19.88C138.327 18.008 136.995 16.1 133.611 16.1H133.485C130.605 16.1 129.165 17.486 128.679 17.972V16.316H124.701V26Z" fill="#00FF85"/>
</svg>
