<svg width="279" height="78" viewBox="0 0 279 78" fill="none" xmlns="http://www.w3.org/2000/svg">
<path fill-rule="evenodd" clip-rule="evenodd" d="M64.9464 3.09934C66.2685 2.1403 65.6091 0 63.9915 0H24.7126C24.2852 0 23.8682 0.136013 23.5189 0.389394L0.702466 16.9394C-0.234156 17.6188 -0.234155 19.0479 0.702468 19.7272L18.9149 32.9377C19.2642 33.1911 19.6811 33.3271 20.1085 33.3271H34.8287C35.5152 33.3271 36.0717 32.7544 36.0717 32.048V29.9306C36.0717 28.908 37.1802 28.2989 38.0061 28.8676L48.2014 35.8881C48.937 36.3947 48.937 37.5076 48.2014 38.0141L38.0061 45.0346C37.1802 45.6034 36.0717 44.9942 36.0717 43.9716V41.4279C36.0717 40.7215 35.5152 40.1488 34.8287 40.1488H19.912C19.4846 40.1488 19.0676 40.2848 18.7183 40.5382L3.05363 51.9007C1.73147 52.8597 2.3909 55 4.00854 55H43.2874C43.7148 55 44.1318 54.864 44.4811 54.6106L67.2975 38.0606C68.2342 37.3812 68.2342 35.9521 67.2975 35.2728L49.5264 22.3824C49.1771 22.129 48.7602 21.993 48.3328 21.993H32.757C32.0705 21.993 31.5139 22.5657 31.5139 23.2721V25.3895C31.5139 26.4121 30.4055 27.0212 29.5796 26.4525L19.3843 19.432C18.6487 18.9254 18.6487 17.8125 19.3843 17.306L29.5796 10.2855C30.4055 9.71676 31.5139 10.3259 31.5139 11.3485V13.8922C31.5139 14.5986 32.0705 15.1713 32.757 15.1713H47.6467C48.0741 15.1713 48.491 15.0353 48.8404 14.7819L64.9464 3.09934Z" fill="white"/>
<path d="M104.837 19.2224C104.696 17.8259 104.088 16.7411 103.014 15.9678C101.94 15.1945 100.482 14.8079 98.6409 14.8079C97.3898 14.8079 96.3335 14.981 95.4719 15.3272C94.6104 15.6619 93.9494 16.1294 93.4891 16.7295C93.0406 17.3297 92.8164 18.0106 92.8164 18.7723C92.7928 19.4071 92.9285 19.9611 93.2236 20.4343C93.5304 20.9075 93.9494 21.3172 94.4805 21.6634C95.0116 21.9981 95.6254 22.2924 96.3217 22.5463C97.018 22.7887 97.7616 22.9965 98.5524 23.1696L101.81 23.9313C103.391 24.2775 104.843 24.7392 106.165 25.3163C107.487 25.8933 108.632 26.6031 109.599 27.4456C110.567 28.2882 111.317 29.2807 111.848 30.4233C112.391 31.5659 112.668 32.8758 112.68 34.3531C112.668 36.5229 112.102 38.4041 110.98 39.9968C109.871 41.578 108.266 42.8071 106.165 43.6843C104.076 44.5499 101.556 44.9827 98.6055 44.9827C95.6785 44.9827 93.1292 44.5441 90.9575 43.667C88.7977 42.7898 87.1099 41.4914 85.8943 39.7718C84.6904 38.0406 84.059 35.8997 84 33.349H91.4178C91.5004 34.5378 91.8486 35.5303 92.4623 36.3267C93.0878 37.1115 93.9199 37.7059 94.9585 38.1098C96.0089 38.5022 97.1951 38.6984 98.517 38.6984C99.8152 38.6984 100.942 38.5138 101.898 38.1445C102.866 37.7751 103.616 37.2615 104.147 36.6037C104.678 35.9458 104.943 35.1899 104.943 34.3358C104.943 33.5395 104.701 32.8701 104.218 32.3276C103.745 31.7852 103.049 31.3235 102.128 30.9427C101.22 30.5618 100.104 30.2156 98.7825 29.9039L94.8346 28.9345C91.7778 28.2074 89.3642 27.0706 87.5938 25.524C85.8235 23.9775 84.9442 21.8943 84.956 19.2744C84.9442 17.1277 85.5284 15.2522 86.7087 13.648C87.9007 12.0437 89.5353 10.7915 91.6125 9.89128C93.6898 8.99106 96.0503 8.54095 98.694 8.54095C101.385 8.54095 103.734 8.99106 105.74 9.89128C107.758 10.7915 109.328 12.0437 110.449 13.648C111.57 15.2522 112.149 17.1104 112.184 19.2224H104.837Z" fill="url(#paint0_linear_229_1535)"/>
<path d="M134.432 44.4806V17.8894H141.62V22.581H141.939C142.505 21.0229 143.449 19.7937 144.771 18.8935C146.093 17.9933 147.675 17.5432 149.516 17.5432C151.381 17.5432 152.968 17.9991 154.278 18.9108C155.588 19.8111 156.462 21.0344 156.898 22.581H157.182C157.736 21.0575 158.739 19.8399 160.191 18.9281C161.655 18.0048 163.384 17.5432 165.378 17.5432C167.916 17.5432 169.975 18.3338 171.557 19.9149C173.15 21.4845 173.947 23.712 173.947 26.5974V44.4806H166.423V28.0516C166.423 26.5743 166.022 25.4663 165.219 24.7277C164.416 23.989 163.413 23.6197 162.209 23.6197C160.84 23.6197 159.772 24.0467 159.005 24.9008C158.238 25.7433 157.854 26.857 157.854 28.242V44.4806H150.543V27.8958C150.543 26.5916 150.159 25.5529 149.392 24.7796C148.637 24.0063 147.639 23.6197 146.4 23.6197C145.562 23.6197 144.807 23.8274 144.134 24.2429C143.473 24.6469 142.948 25.2182 142.558 25.9568C142.169 26.6839 141.974 27.538 141.974 28.519V44.4806H134.432Z" fill="url(#paint1_linear_229_1535)"/>
<path d="M180.046 44.4806V9.02568H187.587V22.3559H187.818C188.148 21.6404 188.626 20.9133 189.252 20.1746C189.889 19.4244 190.715 18.8012 191.73 18.3049C192.757 17.7971 194.032 17.5432 195.554 17.5432C197.537 17.5432 199.366 18.051 201.042 19.0666C202.718 20.0707 204.058 21.5884 205.061 23.6197C206.064 25.6394 206.566 28.1727 206.566 31.2197C206.566 34.1858 206.076 36.6902 205.096 38.7331C204.129 40.7643 202.807 42.3051 201.131 43.3554C199.467 44.3941 197.602 44.9134 195.536 44.9134C194.073 44.9134 192.828 44.6768 191.801 44.2036C190.786 43.7305 189.954 43.1361 189.305 42.4205C188.656 41.6934 188.16 40.9605 187.818 40.2219H187.481V44.4806H180.046ZM187.428 31.185C187.428 32.7662 187.652 34.1454 188.101 35.3226C188.549 36.4998 189.198 37.4173 190.048 38.0752C190.898 38.7215 191.931 39.0447 193.146 39.0447C194.374 39.0447 195.412 38.7158 196.262 38.0579C197.112 37.3885 197.755 36.4652 198.192 35.288C198.64 34.0992 198.865 32.7316 198.865 31.185C198.865 29.65 198.646 28.2997 198.21 27.134C197.773 25.9684 197.13 25.0566 196.28 24.3987C195.43 23.7409 194.386 23.4119 193.146 23.4119C191.919 23.4119 190.88 23.7293 190.031 24.3641C189.193 24.9989 188.549 25.8991 188.101 27.0648C187.652 28.2305 187.428 29.6039 187.428 31.185Z" fill="url(#paint2_linear_229_1535)"/>
<path d="M211.598 44.4806V17.8894H219.14V44.4806H211.598ZM215.387 14.4616C214.265 14.4616 213.303 14.0981 212.501 13.371C211.71 12.6323 211.315 11.7494 211.315 10.7223C211.315 9.70662 211.71 8.83525 212.501 8.10815C213.303 7.3695 214.265 7.00018 215.387 7.00018C216.508 7.00018 217.464 7.3695 218.255 8.10815C219.057 8.83525 219.458 9.70662 219.458 10.7223C219.458 11.7494 219.057 12.6323 218.255 13.371C217.464 14.0981 216.508 14.4616 215.387 14.4616Z" fill="url(#paint3_linear_229_1535)"/>
<path d="M237.467 45C234.717 45 232.339 44.4287 230.333 43.2861C228.338 42.132 226.798 40.5277 225.712 38.4734C224.626 36.4075 224.083 34.0127 224.083 31.2889C224.083 28.5421 224.626 26.1415 225.712 24.0871C226.798 22.0212 228.338 20.417 230.333 19.2744C232.339 18.1202 234.717 17.5432 237.467 17.5432C240.217 17.5432 242.59 18.1202 244.584 19.2744C246.591 20.417 248.137 22.0212 249.223 24.0871C250.308 26.1415 250.851 28.5421 250.851 31.2889C250.851 34.0127 250.308 36.4075 249.223 38.4734C248.137 40.5277 246.591 42.132 244.584 43.2861C242.59 44.4287 240.217 45 237.467 45ZM237.503 39.287C238.754 39.287 239.798 38.9408 240.636 38.2483C241.474 37.5443 242.106 36.5864 242.531 35.3745C242.967 34.1627 243.186 32.7835 243.186 31.237C243.186 29.6904 242.967 28.3112 242.531 27.0994C242.106 25.8876 241.474 24.9296 240.636 24.2256C239.798 23.5216 238.754 23.1696 237.503 23.1696C236.24 23.1696 235.178 23.5216 234.316 24.2256C233.466 24.9296 232.823 25.8876 232.386 27.0994C231.962 28.3112 231.749 29.6904 231.749 31.237C231.749 32.7835 231.962 34.1627 232.386 35.3745C232.823 36.5864 233.466 37.5443 234.316 38.2483C235.178 38.9408 236.24 39.287 237.503 39.287Z" fill="url(#paint4_linear_229_1535)"/>
<path d="M278.38 25.4721L271.476 25.8876C271.358 25.3105 271.104 24.7911 270.715 24.3295C270.325 23.8563 269.812 23.4812 269.175 23.2042C268.549 22.9157 267.8 22.7714 266.926 22.7714C265.758 22.7714 264.772 23.0138 263.97 23.4985C263.167 23.9717 262.766 24.6065 262.766 25.4028C262.766 26.0376 263.025 26.5743 263.545 27.0128C264.064 27.4514 264.955 27.8034 266.218 28.0689L271.14 29.0383C273.783 29.5692 275.754 30.4233 277.053 31.6005C278.351 32.7777 279 34.3243 279 36.2401C279 37.9829 278.475 39.5121 277.424 40.8278C276.386 42.1435 274.958 43.1707 273.14 43.9093C271.334 44.6365 269.251 45 266.891 45C263.291 45 260.423 44.2671 258.287 42.8014C256.162 41.3241 254.917 39.3159 254.551 36.7768L261.969 36.3959C262.193 37.4693 262.736 38.2887 263.598 38.8542C264.459 39.4082 265.563 39.6852 266.908 39.6852C268.23 39.6852 269.293 39.4371 270.095 38.9408C270.909 38.433 271.323 37.7809 271.334 36.9846C271.323 36.3152 271.033 35.7669 270.467 35.3399C269.9 34.9013 269.027 34.5666 267.847 34.3358L263.138 33.4183C260.482 32.8989 258.505 31.9987 257.207 30.7176C255.92 29.4365 255.277 27.8034 255.277 25.8183C255.277 24.1102 255.749 22.6387 256.693 21.4038C257.649 20.1688 258.989 19.2167 260.712 18.5473C262.447 17.8779 264.477 17.5432 266.802 17.5432C270.237 17.5432 272.939 18.253 274.91 19.6726C276.893 21.0921 278.05 23.0253 278.38 25.4721Z" fill="url(#paint5_linear_229_1535)"/>
<path d="M119.034 44.4805V17.8892H126.576V44.4805H119.034ZM122.823 14.4615C121.701 14.4615 120.739 14.0979 119.937 13.3708C119.146 12.6322 118.751 11.7493 118.751 10.7221C118.751 9.70644 119.146 8.83507 119.937 8.10797C120.739 7.36932 121.701 7 122.823 7C123.944 7 124.9 7.36932 125.691 8.10797C126.493 8.83507 126.894 9.70644 126.894 10.7221C126.894 11.7493 126.493 12.6322 125.691 13.3708C124.9 14.0979 123.944 14.4615 122.823 14.4615Z" fill="url(#paint6_linear_229_1535)"/>
<path d="M3.11975 77.8669H0V68.1331H3.21857C4.16281 68.1331 4.97373 68.3279 5.65132 68.7177C6.32891 69.1042 6.84809 69.6603 7.20884 70.3859C7.57274 71.1084 7.75468 71.975 7.75468 72.9857C7.75468 73.9997 7.57117 74.871 7.20414 75.5998C6.84024 76.3286 6.31323 76.8894 5.62309 77.2823C4.93294 77.6721 4.0985 77.8669 3.11975 77.8669ZM1.454 76.5837H3.03976C3.77382 76.5837 4.38397 76.4442 4.8702 76.1654C5.35644 75.8834 5.72033 75.4762 5.96188 74.9439C6.20343 74.4084 6.32421 73.7557 6.32421 72.9857C6.32421 72.2221 6.20343 71.5741 5.96188 71.0418C5.72347 70.5095 5.36742 70.1055 4.89373 69.8298C4.42004 69.5542 3.83186 69.4163 3.12917 69.4163H1.454V76.5837Z" fill="white"/>
<path d="M24.135 68.1331V77.8669H22.681V68.1331H24.135Z" fill="white"/>
<path d="M45.8925 71.2082C45.8016 70.9198 45.6792 70.6616 45.5255 70.4335C45.3749 70.2022 45.1945 70.0057 44.9844 69.8441C44.7742 69.6793 44.5342 69.5542 44.2644 69.4686C43.9978 69.3831 43.7045 69.3403 43.3845 69.3403C42.8418 69.3403 42.3524 69.4813 41.9164 69.7633C41.4803 70.0453 41.1353 70.4588 40.8812 71.0038C40.6302 71.5456 40.5047 72.2094 40.5047 72.9952C40.5047 73.7842 40.6318 74.4512 40.8859 74.9962C41.14 75.5412 41.4882 75.9547 41.9305 76.2367C42.3728 76.5187 42.8763 76.6597 43.441 76.6597C43.9648 76.6597 44.4213 76.552 44.8103 76.3365C45.2024 76.121 45.5051 75.8169 45.7184 75.424C45.9349 75.0279 46.0431 74.5621 46.0431 74.0266L46.4195 74.0979H43.6621V72.8859H47.45V73.9933C47.45 74.8108 47.2775 75.5206 46.9324 76.1226C46.5905 76.7215 46.1168 77.1841 45.5114 77.5105C44.9091 77.8368 44.2189 78 43.441 78C42.5689 78 41.8034 77.7972 41.1447 77.3916C40.489 76.9861 39.9777 76.411 39.6107 75.6663C39.2436 74.9186 39.0601 74.0314 39.0601 73.0048C39.0601 72.2285 39.1668 71.5314 39.3801 70.9135C39.5934 70.2956 39.893 69.7712 40.2788 69.3403C40.6678 68.9062 41.1243 68.5751 41.6482 68.347C42.1752 68.1157 42.7508 68 43.3751 68C43.8958 68 44.3805 68.0776 44.8291 68.2329C45.2808 68.3881 45.6823 68.6084 46.0337 68.8935C46.3882 69.1787 46.6815 69.5177 46.9136 69.9106C47.1458 70.3004 47.3026 70.7329 47.3842 71.2082H45.8925Z" fill="white"/>
<path d="M63.868 68.1331V77.8669H62.414V68.1331H63.868Z" fill="white"/>
<path d="M78.6284 69.3973V68.1331H86.0867V69.3973H83.0798V77.8669H81.6306V69.3973H78.6284Z" fill="white"/>
<path d="M100.528 77.8669H98.9849L102.453 68.1331H104.133L107.601 77.8669H106.057L103.333 69.9011H103.258L100.528 77.8669ZM100.787 74.0551H105.794V75.2909H100.787V74.0551Z" fill="white"/>
<path d="M122.111 77.8669V68.1331H123.565V76.6027H127.931V77.8669H122.111Z" fill="white"/>
<path d="M160.147 77.8669H158.604L162.072 68.1331H163.752L167.22 77.8669H165.676L162.952 69.9011H162.876L160.147 77.8669ZM160.406 74.0551H165.413V75.2909H160.406V74.0551Z" fill="white"/>
<path d="M187.798 71.2082C187.707 70.9198 187.585 70.6616 187.431 70.4335C187.281 70.2022 187.1 70.0057 186.89 69.8441C186.68 69.6793 186.44 69.5542 186.17 69.4686C185.904 69.3831 185.61 69.3403 185.29 69.3403C184.748 69.3403 184.258 69.4813 183.822 69.7633C183.386 70.0453 183.041 70.4588 182.787 71.0038C182.536 71.5456 182.411 72.2094 182.411 72.9952C182.411 73.7842 182.538 74.4512 182.792 74.9962C183.046 75.5412 183.394 75.9547 183.836 76.2367C184.279 76.5187 184.782 76.6597 185.347 76.6597C185.871 76.6597 186.327 76.552 186.716 76.3365C187.108 76.121 187.411 75.8169 187.624 75.424C187.841 75.0279 187.949 74.5621 187.949 74.0266L188.325 74.0979H185.568V72.8859H189.356V73.9933C189.356 74.8108 189.183 75.5206 188.838 76.1226C188.496 76.7215 188.023 77.1841 187.417 77.5105C186.815 77.8368 186.125 78 185.347 78C184.475 78 183.709 77.7972 183.051 77.3916C182.395 76.9861 181.884 76.411 181.517 75.6663C181.15 74.9186 180.966 74.0314 180.966 73.0048C180.966 72.2285 181.073 71.5314 181.286 70.9135C181.499 70.2956 181.799 69.7712 182.185 69.3403C182.574 68.9062 183.03 68.5751 183.554 68.347C184.081 68.1157 184.657 68 185.281 68C185.802 68 186.286 68.0776 186.735 68.2329C187.187 68.3881 187.588 68.6084 187.94 68.8935C188.294 69.1787 188.587 69.5177 188.82 69.9106C189.052 70.3004 189.209 70.7329 189.29 71.2082H187.798Z" fill="white"/>
<path d="M204.32 77.8669V68.1331H210.362V69.3973H205.774V72.3631H210.046V73.6226H205.774V76.6027H210.418V77.8669H204.32Z" fill="white"/>
<path d="M233.2 68.1331V77.8669H231.864L226.966 70.7281H226.876V77.8669H225.422V68.1331H226.768L231.671 75.2814H231.761V68.1331H233.2Z" fill="white"/>
<path d="M256.444 71.2985H254.976C254.919 70.9816 254.814 70.7028 254.66 70.462C254.507 70.2212 254.318 70.0168 254.096 69.8489C253.873 69.6809 253.624 69.5542 253.347 69.4686C253.075 69.3831 252.784 69.3403 252.477 69.3403C251.922 69.3403 251.424 69.4813 250.985 69.7633C250.549 70.0453 250.204 70.4588 249.95 71.0038C249.699 71.5488 249.574 72.2142 249.574 73C249.574 73.7921 249.699 74.4607 249.95 75.0057C250.204 75.5507 250.551 75.9626 250.99 76.2414C251.429 76.5203 251.923 76.6597 252.472 76.6597C252.777 76.6597 253.065 76.6185 253.338 76.5361C253.614 76.4506 253.864 76.3254 254.086 76.1606C254.309 75.9959 254.497 75.7947 254.651 75.557C254.808 75.3162 254.916 75.0406 254.976 74.73L256.444 74.7348C256.365 75.2132 256.213 75.6537 255.987 76.0561C255.765 76.4553 255.477 76.8007 255.126 77.0922C254.778 77.3805 254.38 77.6039 253.931 77.7624C253.482 77.9208 252.993 78 252.463 78C251.628 78 250.885 77.8004 250.232 77.4011C249.58 76.9987 249.065 76.4236 248.689 75.6759C248.316 74.9281 248.129 74.0361 248.129 73C248.129 71.9607 248.317 71.0688 248.694 70.3241C249.07 69.5764 249.585 69.0029 250.237 68.6036C250.89 68.2012 251.632 68 252.463 68C252.974 68 253.451 68.0745 253.893 68.2234C254.339 68.3691 254.739 68.5846 255.093 68.8698C255.448 69.1518 255.741 69.4971 255.973 69.9059C256.205 70.3115 256.362 70.7757 256.444 71.2985Z" fill="white"/>
<path d="M270.558 68.1331H272.21L274.727 72.558H274.831L277.348 68.1331H279L275.504 74.0456V77.8669H274.054V74.0456L270.558 68.1331Z" fill="white"/>
<defs>
<linearGradient id="paint0_linear_229_1535" x1="82.0171" y1="31.9189" x2="287.575" y2="31.9189" gradientUnits="userSpaceOnUse">
<stop stop-color="white"/>
<stop offset="1" stop-color="white" stop-opacity="0.7"/>
</linearGradient>
<linearGradient id="paint1_linear_229_1535" x1="82.0171" y1="31.9189" x2="287.575" y2="31.9189" gradientUnits="userSpaceOnUse">
<stop stop-color="white"/>
<stop offset="1" stop-color="white" stop-opacity="0.7"/>
</linearGradient>
<linearGradient id="paint2_linear_229_1535" x1="82.0171" y1="31.9189" x2="287.575" y2="31.9189" gradientUnits="userSpaceOnUse">
<stop stop-color="white"/>
<stop offset="1" stop-color="white" stop-opacity="0.7"/>
</linearGradient>
<linearGradient id="paint3_linear_229_1535" x1="82.0171" y1="31.9189" x2="287.575" y2="31.9189" gradientUnits="userSpaceOnUse">
<stop stop-color="white"/>
<stop offset="1" stop-color="white" stop-opacity="0.7"/>
</linearGradient>
<linearGradient id="paint4_linear_229_1535" x1="82.0171" y1="31.9189" x2="287.575" y2="31.9189" gradientUnits="userSpaceOnUse">
<stop stop-color="white"/>
<stop offset="1" stop-color="white" stop-opacity="0.7"/>
</linearGradient>
<linearGradient id="paint5_linear_229_1535" x1="82.0171" y1="31.9189" x2="287.575" y2="31.9189" gradientUnits="userSpaceOnUse">
<stop stop-color="white"/>
<stop offset="1" stop-color="white" stop-opacity="0.7"/>
</linearGradient>
<linearGradient id="paint6_linear_229_1535" x1="82.0171" y1="31.9189" x2="287.575" y2="31.9189" gradientUnits="userSpaceOnUse">
<stop stop-color="white"/>
<stop offset="1" stop-color="white" stop-opacity="0.7"/>
</linearGradient>
</defs>
</svg>
