<svg width="18" height="19" viewBox="0 0 18 19" fill="none" xmlns="http://www.w3.org/2000/svg">
<path d="M2.25 2.75V2.25H1.75V2.75H2.25ZM9.39645 10.6036C9.59171 10.7988 9.90829 10.7988 10.1036 10.6036C10.2988 10.4083 10.2988 10.0917 10.1036 9.89645L9.39645 10.6036ZM2.75 8.75V2.75H1.75V8.75H2.75ZM2.25 3.25H8.25V2.25H2.25V3.25ZM1.89645 3.10355L9.39645 10.6036L10.1036 9.89645L2.60355 2.39645L1.89645 3.10355Z" fill="#666666"/>
<path d="M3 11.75V11.75C3 12.447 3 12.7955 3.05764 13.0853C3.29436 14.2753 4.22466 15.2056 5.41473 15.4424C5.70453 15.5 6.05302 15.5 6.75 15.5H9C11.8284 15.5 13.2426 15.5 14.1213 14.6213C15 13.7426 15 12.3284 15 9.5V7.25C15 6.55302 15 6.20453 14.9424 5.91473C14.7056 4.72466 13.7753 3.79436 12.5853 3.55764C12.2955 3.5 11.947 3.5 11.25 3.5V3.5" stroke="#666666" stroke-linecap="round"/>
</svg>
