<svg width="18" height="19" viewBox="0 0 18 19" fill="none" xmlns="http://www.w3.org/2000/svg">
<g clip-path="url(#clip0_213_1508)">
<path d="M9 0.5C6.61359 0.5 4.32281 1.4488 2.63672 3.13602C0.948885 4.8239 0.000467536 7.113 0 9.5C0 11.886 0.949219 14.1768 2.63672 15.864C4.32281 17.5512 6.61359 18.5 9 18.5C11.3864 18.5 13.6772 17.5512 15.3633 15.864C17.0508 14.1768 18 11.886 18 9.5C18 7.11402 17.0508 4.82323 15.3633 3.13602C13.6772 1.4488 11.3864 0.5 9 0.5Z" fill="url(#paint0_linear_213_1508)"/>
<path d="M4.07388 9.40494C6.69795 8.26194 8.44732 7.50833 9.32201 7.14425C11.8223 6.10461 12.3412 5.92405 12.6801 5.91793C12.7547 5.91674 12.9206 5.93516 13.0289 6.0227C13.1189 6.09652 13.1442 6.19637 13.1569 6.26647C13.1681 6.3365 13.1836 6.49611 13.1709 6.6207C13.0359 8.04383 12.4495 11.4973 12.1514 13.0913C12.0262 13.7657 11.7773 13.9918 11.5369 14.0139C11.0137 14.062 10.6172 13.6685 10.1109 13.3368C9.3192 12.8175 8.87201 12.4943 8.10279 11.9877C7.21404 11.4021 7.7906 11.0802 8.29685 10.5543C8.42904 10.4166 10.7325 8.32199 10.7761 8.132C10.7817 8.10824 10.7873 8.01964 10.7339 7.97295C10.6819 7.92613 10.6045 7.94216 10.5483 7.95481C10.4681 7.97281 9.20388 8.80925 6.75138 10.464C6.39279 10.7106 6.06795 10.8309 5.77545 10.8245C5.45482 10.8177 4.83607 10.6429 4.37623 10.4935C3.81373 10.3103 3.36513 10.2134 3.40451 9.90219C3.4242 9.74019 3.64779 9.57439 4.07388 9.40494V9.40494Z" fill="white"/>
</g>
<defs>
<linearGradient id="paint0_linear_213_1508" x1="9" y1="0.5" x2="9" y2="18.5" gradientUnits="userSpaceOnUse">
<stop stop-color="#2AABEE"/>
<stop offset="1" stop-color="#229ED9"/>
</linearGradient>
<clipPath id="clip0_213_1508">
<rect width="18" height="18" fill="white" transform="translate(0 0.5)"/>
</clipPath>
</defs>
</svg>
